<svg id="Layer_1" data-name="Layer 1" xmlns="http://www.w3.org/2000/svg" viewBox="0 0 750 420"><defs><style>.cls-1{fill:#eff9f8;}.cls-2{fill:#263238;}.cls-3{fill:#253342;}.cls-4{fill:#33475b;}.cls-5{fill:#fafafa;}.cls-6{fill:#fff;}.cls-7{fill:#455a64;}.cls-8{fill:#cbd6e2;}.cls-9{fill:#7c98b6;}.cls-10{fill:#e0e0e0;}.cls-11{fill:#00bda5;}.cls-12{fill:#ff725e;}.cls-13{fill:#ffbe9d;}.cls-14{fill:#eb996e;}</style></defs><rect class="cls-1" x="-1.38" y="-1.14" width="752.76" height="422.28"/><g id="freepik--Floor--inject-130"><path class="cls-2" d="M684.31,374.31c0,.13-138.9.23-310.19.23s-310.22-.1-310.22-.23,138.86-.24,310.22-.24S684.31,374.18,684.31,374.31Z"/></g><path class="cls-3" d="M543,120.43H255.71a9,9,0,0,0-9,9V332.32a9,9,0,0,0,9,9H366s7,21.69-14.73,32.92H454.37s-24.56-8.42-18.24-32.92H543a9,9,0,0,0,9-9h0V129.4A9,9,0,0,0,543,120.43Z"/><path class="cls-4" d="M403.21,320c3.91,5.59-2.2,11.71-7.79,7.8a1.83,1.83,0,0,1-.48-.48c-3.91-5.59,2.21-11.69,7.79-7.8A1.83,1.83,0,0,1,403.21,320Z"/><rect class="cls-5" x="253.23" y="132.6" width="291.7" height="173.03" rx="2.96"/><path class="cls-6" d="M542,306.08H256.19a3.41,3.41,0,0,1-3.41-3.42V135.56a3.41,3.41,0,0,1,3.41-3.42H542a3.42,3.42,0,0,1,3.42,3.42h0V302.7A3.42,3.42,0,0,1,542,306.08Zm-285.77-173a2.52,2.52,0,0,0-2.51,2.51V302.7a2.51,2.51,0,0,0,2.51,2.51H542a2.51,2.51,0,0,0,2.51-2.51h0V135.56a2.51,2.51,0,0,0-2.51-2.51Z"/><path class="cls-7" d="M277.19,139.28a2.34,2.34,0,1,1-2.35-2.33h0A2.35,2.35,0,0,1,277.19,139.28Z"/><path class="cls-7" d="M263,139.28a2.33,2.33,0,1,1-2.33-2.36,2.32,2.32,0,0,1,2.33,2.36Z"/><path class="cls-7" d="M269.81,139.28a2.33,2.33,0,1,1-2.33-2.33,2.33,2.33,0,0,1,2.33,2.33Z"/><path class="cls-2" d="M454.35,227.58c0,.13-24.21.24-54.08.24s-54.08-.11-54.08-.24,24.21-.24,54.08-.24S454.35,227.45,454.35,227.58Z"/><path class="cls-2" d="M428.05,231.3c0,.14-13,.24-29,.24s-29-.1-29-.24,13-.23,29-.23S428.05,231.18,428.05,231.3Z"/><rect class="cls-8" x="282.02" y="247.34" width="69.04" height="45.03"/><path class="cls-5" d="M292,256.26a2.78,2.78,0,1,1-2.78-2.76h0a2.77,2.77,0,0,1,2.78,2.75Z"/><path class="cls-5" d="M347.31,258.59,345,256.36l-2.11,2.16-.07-6.45,4.38,0Zm-2.27-2.5.07.06,2,2-.06-5.88h-4l.06,5.77Z"/><path class="cls-5" d="M329.92,254.79c0,.14-7.58.24-16.93.24s-16.93-.1-16.93-.24,7.58-.23,16.93-.23S329.92,254.68,329.92,254.79Z"/><path class="cls-5" d="M309.11,258.59a45.94,45.94,0,0,1-6.53.23,45.75,45.75,0,0,1-6.52-.23,47.27,47.27,0,0,1,6.52-.24A47.47,47.47,0,0,1,309.11,258.59Z"/><rect class="cls-9" x="365.75" y="247.34" width="69.04" height="45.03"/><path class="cls-2" d="M433.91,297.6c0,.13-14.93.23-33.36.23s-33.35-.1-33.35-.23,14.93-.24,33.35-.24S433.91,297.47,433.91,297.6Z"/><circle class="cls-5" cx="373" cy="256.26" r="2.76"/><path class="cls-5" d="M431.05,258.59l-2.28-2.23-2.11,2.16-.07-6.45,4.38,0Zm-2.28-2.5.07.06,2,2-.07-5.88h-4l.06,5.77Z"/><path class="cls-5" d="M413.65,254.79c0,.14-7.58.24-16.93.24s-16.94-.1-16.94-.24,7.58-.23,16.94-.23S413.65,254.68,413.65,254.79Z"/><path class="cls-5" d="M392.84,258.59a91.82,91.82,0,0,1-13.06,0A89,89,0,0,1,392.84,258.59Z"/><rect class="cls-8" x="449.48" y="247.34" width="69.04" height="45.03"/><path class="cls-2" d="M517.61,297.6c0,.13-14.94.23-33.35.23s-33.37-.1-33.37-.23,14.94-.24,33.37-.24S517.61,297.47,517.61,297.6Z"/><path class="cls-5" d="M459.49,256.26a2.77,2.77,0,1,1-2.76-2.76h0a2.71,2.71,0,0,1,2.76,2.67Z"/><path class="cls-5" d="M514.78,258.59l-2.28-2.23-2.12,2.16-.06-6.45,4.38,0Zm-2.29-2.5.08.06,2,2-.06-5.88h-4l.06,5.77Z"/><path class="cls-5" d="M497.38,254.79c0,.14-7.58.24-16.93.24s-16.94-.1-16.94-.24,7.58-.23,16.94-.23S497.38,254.68,497.38,254.79Z"/><path class="cls-5" d="M476.58,258.59a92,92,0,0,1-13.07,0A89.09,89.09,0,0,1,476.58,258.59Z"/><path class="cls-10" d="M542.66,270.46a9.58,9.58,0,1,1-9.57-9.58,9.58,9.58,0,0,1,9.57,9.58Z"/><path class="cls-2" d="M531.64,274.53a8.76,8.76,0,0,1,1.34-1.24c.86-.74,2.06-1.74,3.4-2.83v.26l-.06-.06c-1.32-1.15-2.51-2.2-3.35-3a9.61,9.61,0,0,1-1.33-1.3,10.85,10.85,0,0,1,1.48,1.12c.91.74,2.1,1.76,3.43,2.9l.06.06.15.14-.15.13c-1.35,1.08-2.57,2-3.47,2.71A9.89,9.89,0,0,1,531.64,274.53Z"/><path class="cls-10" d="M256.48,270.46a9.58,9.58,0,1,1,9.58,9.59,9.58,9.58,0,0,1-9.58-9.59Z"/><path class="cls-2" d="M267.5,266.38a8.76,8.76,0,0,1-1.34,1.24c-.9.73-2.06,1.74-3.4,2.83v-.27l.06.07c1.32,1.14,2.51,2.2,3.35,3a9.15,9.15,0,0,1,1.33,1.31,10.09,10.09,0,0,1-1.48-1.12c-.91-.74-2.1-1.76-3.43-2.91l-.06-.05-.15-.14.15-.13c1.35-1.08,2.57-2.06,3.47-2.71A10.62,10.62,0,0,1,267.5,266.38Z"/><g id="freepik--device-2--inject-130"><path class="cls-3" d="M220.66,212.67l-47.88-.23A10.41,10.41,0,0,1,162.4,202h0l.51-119.65A10.42,10.42,0,0,1,173.39,72h0l47.87.23a10.4,10.4,0,0,1,10.38,10.41v0l-.51,119.69A10.41,10.41,0,0,1,220.66,212.67Z"/><path class="cls-6" d="M221.2,76.31h-9.29a2.3,2.3,0,0,0-2.26,2.34h0v1.68a2.3,2.3,0,0,1-2.26,2.34h0l-18.12-.09a2.29,2.29,0,0,1-2.19-2.39h0V78.5a2.3,2.3,0,0,0-2.24-2.36H173.42a7.3,7.3,0,0,0-7.34,7.25h0l-.5,116.86a7.26,7.26,0,0,0,7.19,7.31h.06l47.78.22a7.29,7.29,0,0,0,7.33-7.25h0l.49-116.86a7.25,7.25,0,0,0-7.13-7.36Z"/><path class="cls-2" d="M220.6,124.15c0,.13-10.39.24-23.2.24s-23.21-.11-23.21-.24,10.39-.23,23.21-.23S220.6,124,220.6,124.15Z"/><path class="cls-2" d="M220.6,127c0,.13-10.39.23-23.2.23s-23.21-.1-23.21-.23,10.39-.24,23.21-.24S220.6,126.88,220.6,127Z"/><path class="cls-2" d="M204.92,129.57a92.1,92.1,0,0,1-9.34.24,91.94,91.94,0,0,1-9.34-.24,90.87,90.87,0,0,1,9.34-.24A91,91,0,0,1,204.92,129.57Z"/><rect class="cls-11" x="171.48" y="135.86" width="49.09" height="31.43"/><ellipse class="cls-5" cx="176.63" cy="142.09" rx="1.97" ry="1.93"/><path class="cls-5" d="M217.88,143.72l-1.59-1.58-1.49,1.51-.05-4.53h3.11ZM216.26,142l.05.05,1.43,1.36v-4.11H214.9l0,4Z"/><path class="cls-5" d="M205.55,141.07c0,.13-5.39.23-12.05.23s-12-.1-12-.23,5.39-.24,12-.24S205.55,140.94,205.55,141.07Z"/><path class="cls-5" d="M190.75,143.72a24,24,0,0,1-4.64.24,24.14,24.14,0,0,1-4.65-.24,22,22,0,0,1,4.65-.24A21.83,21.83,0,0,1,190.75,143.72Z"/><path class="cls-11" d="M184.81,76.14H173.38A7.31,7.31,0,0,0,166,83.39h0L166,105.54c2.45.49,4.91,1,7.36,1.4,12.68,2.21,26.21,3,37.79-2.53,6.43-3,11.78-7.82,17.29-12.35V83.67a7.25,7.25,0,0,0-7.19-7.31h-9.34a2.3,2.3,0,0,0-2.27,2.33h0v1.67a2.3,2.3,0,0,1-2.25,2.35h0l-18.12-.09a2.3,2.3,0,0,1-2.14-2.44h0V78.5a2.31,2.31,0,0,0-2.24-2.36Zm3.82,14.25a6.55,6.55,0,1,1-6.55-6.55h0A6.56,6.56,0,0,1,188.63,90.39Z"/><path class="cls-12" d="M173.35,106.9c-2.46-.43-4.91-.91-7.37-1.41l0,11.29h62.38l.1-24.76c-5.51,4.53-10.87,9.3-17.28,12.36C199.55,109.89,186,109.11,173.35,106.9Zm19,5.89a.56.56,0,1,1,.56-.56h0a.56.56,0,0,1-.56.56h0Zm3.57,0a.56.56,0,1,1,.56-.56h0a.56.56,0,0,1-.56.56h0Zm3.57,0a.56.56,0,1,1,.56-.56h0a.56.56,0,0,1-.56.56h0Z"/><path class="cls-2" d="M192.33,111.67a.56.56,0,0,0,0,1.12.57.57,0,0,0,.57-.56h0A.57.57,0,0,0,192.33,111.67Z"/><path class="cls-2" d="M195.9,111.67a.56.56,0,1,0,.56.56h0A.56.56,0,0,0,195.9,111.67Z"/><path class="cls-2" d="M199.47,111.67a.56.56,0,1,0,.56.56h0A.56.56,0,0,0,199.47,111.67Z"/><path class="cls-12" d="M182.09,83.84a6.55,6.55,0,1,0,6.54,6.56h0A6.56,6.56,0,0,0,182.09,83.84Z"/><path class="cls-9" d="M182.09,83.84a6.55,6.55,0,1,0,6.54,6.56h0A6.56,6.56,0,0,0,182.09,83.84Z"/><path class="cls-9" d="M171.48,207.37a7.87,7.87,0,0,0,1.38.13l46.8.22V183.09H171.48Zm45.49-21,.06,4.57-1.59-1.54L214,190.9l-.05-4.53Zm-40.43,1.07a1.93,1.93,0,1,1-1.93,1.93,1.92,1.92,0,0,1,1.93-1.93Z"/><polygon class="cls-9" points="215.47 189.2 215.52 189.25 216.91 190.61 216.87 186.5 214.08 186.53 214.13 190.56 215.47 189.2"/><circle class="cls-5" cx="176.54" cy="189.32" r="1.93"/><path class="cls-9" d="M173.35,106.9c-2.46-.43-4.91-.91-7.37-1.41l0,11.29h62.38l.1-24.76c-5.51,4.53-10.87,9.3-17.28,12.36C199.55,109.89,186,109.11,173.35,106.9Zm19,5.89a.56.56,0,1,1,.56-.56h0a.56.56,0,0,1-.56.56h0Zm3.57,0a.56.56,0,1,1,.56-.56h0a.56.56,0,0,1-.56.56h0Zm3.57,0a.56.56,0,1,1,.56-.56h0a.56.56,0,0,1-.56.56h0Z"/><path class="cls-2" d="M219.27,170.43c0,.14-10.7.24-23.89.24s-23.9-.1-23.9-.24,10.7-.23,23.9-.23S219.27,170.31,219.27,170.43Z"/><path class="cls-2" d="M219.27,172.85c0,.13-10.7.24-23.89.24s-23.9-.11-23.9-.24,10.7-.23,23.9-.23S219.27,172.72,219.27,172.85Z"/><path class="cls-2" d="M219.27,175.61c0,.12-10.7.23-23.89.23s-23.9-.11-23.9-.23,10.7-.24,23.9-.24S219.27,175.48,219.27,175.61Z"/><path class="cls-2" d="M196.38,178c0,.13-5.57.23-12.44.23s-12.46-.1-12.46-.23,5.58-.24,12.46-.24S196.38,177.87,196.38,178Z"/></g><path class="cls-4" d="M95.85,218.17H315.69a6.1,6.1,0,0,1,6.1,6.1V359a13.19,13.19,0,0,1-13.19,13.2H102.05A13.2,13.2,0,0,1,88.85,359h0V225.19a7,7,0,0,1,7-7Z"/><path class="cls-4" d="M79.09,360.83h252.4v1.05a12.44,12.44,0,0,1-12.43,12.43H91.48a12.44,12.44,0,0,1-12.43-12.43h0v-1.05h0Z"/><rect class="cls-7" x="95.08" y="224.28" width="219.81" height="130.1"/><polygon class="cls-7" points="182.34 360.83 185.48 365.81 229.55 365.81 232.46 360.83 182.34 360.83"/><rect class="cls-6" x="102.42" y="232.95" width="202.38" height="121.38"/><path class="cls-2" d="M111.05,238.94a1.71,1.71,0,1,1-1.7-1.7h0a1.69,1.69,0,0,1,1.7,1.69Z"/><path class="cls-2" d="M118,238.94a1.71,1.71,0,1,1-1.7-1.7h0a1.69,1.69,0,0,1,1.7,1.69Z"/><path class="cls-2" d="M124.91,238.94a1.71,1.71,0,1,1-1.72-1.7,1.7,1.7,0,0,1,1.72,1.7Z"/><rect class="cls-7" x="88.83" y="360.94" width="232.97" height="0.74"/><path class="cls-2" d="M252.17,302.33c0,.13-21.57.24-48.17.24s-48.2-.11-48.2-.24,21.56-.23,48.17-.23S252.17,302.2,252.17,302.33Z"/><path class="cls-2" d="M228.74,305.65c0,.14-11.55.23-25.8.23s-25.81-.09-25.81-.23,11.55-.24,25.78-.24S228.74,305.52,228.74,305.65Z"/><rect class="cls-11" x="117.14" y="316.88" width="54.02" height="35.23"/><path class="cls-5" d="M125,323.88a2.17,2.17,0,1,1-2.18-2.16,2.17,2.17,0,0,1,2.18,2.16Z"/><path class="cls-5" d="M168.24,325.7,166.43,324l-1.65,1.69-.06-5h3.44Zm-1.81-2,0,.06,1.57,1.53-.05-4.61h-3.12v4.53Z"/><path class="cls-5" d="M154.63,322.73c0,.12-5.93.23-13.25.23s-13.26-.11-13.26-.23,5.94-.24,13.26-.24S154.63,322.63,154.63,322.73Z"/><path class="cls-5" d="M138.34,325.7a28.14,28.14,0,0,1-5.11.23,28.22,28.22,0,0,1-5.11-.23,27.35,27.35,0,0,1,5.11-.24A27.27,27.27,0,0,1,138.34,325.7Z"/><rect class="cls-9" x="176.99" y="316.88" width="54.02" height="35.23"/><path class="cls-5" d="M184.79,323.88a2.17,2.17,0,1,1-2.17-2.17,2.17,2.17,0,0,1,2.17,2.17Z"/><path class="cls-5" d="M228.08,325.7,226.27,324l-1.62,1.69-.06-5H228Zm-1.81-2,.06.06,1.56,1.53,0-4.61h-3.11v4.53Z"/><path class="cls-5" d="M214.47,322.73c0,.12-5.93.23-13.25.23s-13.25-.11-13.25-.23,5.93-.24,13.25-.24S214.47,322.63,214.47,322.73Z"/><path class="cls-5" d="M198.19,325.7a28.22,28.22,0,0,1-5.11.23,28.14,28.14,0,0,1-5.11-.23,27.27,27.27,0,0,1,5.11-.24A27.35,27.35,0,0,1,198.19,325.7Z"/><rect class="cls-11" x="236.72" y="316.88" width="54.02" height="35.23"/><path class="cls-5" d="M244.58,323.88a2.17,2.17,0,1,1-2.17-2.17,2.17,2.17,0,0,1,2.17,2.17Z"/><path class="cls-5" d="M287.81,325.7,286,324l-1.65,1.69-.06-5h3.43Zm-1.81-2,.06.06,1.56,1.53-.05-4.61h-3.12l.05,4.53Z"/><path class="cls-5" d="M274.21,322.73c0,.12-5.94.23-13.25.23s-13.25-.11-13.25-.23,5.93-.24,13.25-.24S274.21,322.63,274.21,322.73Z"/><path class="cls-5" d="M257.92,325.7a28.07,28.07,0,0,1-5.1.23,28.14,28.14,0,0,1-5.11-.23,27.27,27.27,0,0,1,5.11-.24A27.2,27.2,0,0,1,257.92,325.7Z"/><path class="cls-11" d="M150.25,249.62c-3.72.72-7.59-.06-11.33.52-7.47,1.14-13.07,7.31-19.93,10.45a25.9,25.9,0,0,1-16.56,1.51v19.64a58.57,58.57,0,0,1,24.6-6.09c15.68-.47,31,3.85,46.5,6.55s32,3.63,46.2-3.08c11.4-5.44,20-15.29,30.59-22.23,15.84-10.43,36.12-13.48,54.5-9v-3.32H156.9C156,247.11,153.08,249.07,150.25,249.62Zm33.93,4.4a8,8,0,1,1-8,8h0A8,8,0,0,1,184.18,254Z"/><path class="cls-12" d="M250.28,256.89c-10.55,6.94-19.18,16.82-30.59,22.25-14.16,6.75-30.74,5.79-46.2,3.09s-30.8-7-46.5-6.56a58.69,58.69,0,0,0-24.59,6.1v12.52H304.78V247.87C286.4,243.41,266.13,246.46,250.28,256.89Zm-52.43,31.53a.8.8,0,1,1,.8-.8.8.8,0,0,1-.8.8Zm5.06,0a.8.8,0,0,1,0-1.6.8.8,0,0,1,0,1.6Zm5,0a.8.8,0,1,1,.8-.8.8.8,0,0,1-.8.8Zm88.82-17.95a2.61,2.61,0,1,1,0,3.69h0a2.61,2.61,0,0,1,0-3.68Z"/><path class="cls-2" d="M197.85,286.82a.8.8,0,0,0,0,1.6h0a.8.8,0,1,0,0-1.6Z"/><circle class="cls-2" cx="202.91" cy="287.62" r="0.8"/><circle class="cls-2" cx="207.95" cy="287.62" r="0.8"/><path class="cls-12" d="M119,260.59c6.88-3.14,12.48-9.31,19.93-10.45,3.75-.58,7.61.2,11.33-.52,2.84-.55,5.73-2.51,6.66-5.07H102.42V262.1A25.87,25.87,0,0,0,119,260.59Z"/><path class="cls-9" d="M119,260.59c6.88-3.14,12.48-9.31,19.93-10.45,3.75-.58,7.61.2,11.33-.52,2.84-.55,5.73-2.51,6.66-5.07H102.42V262.1A25.87,25.87,0,0,0,119,260.59Z"/><circle class="cls-12" cx="184.18" cy="262.03" r="8.01"/><circle class="cls-9" cx="184.18" cy="262.03" r="8.01"/><path class="cls-9" d="M250.28,256.89c-10.55,6.94-19.18,16.82-30.59,22.25-14.16,6.75-30.74,5.79-46.2,3.09s-30.8-7-46.5-6.56a58.69,58.69,0,0,0-24.59,6.1v12.52H304.78V247.87C286.4,243.41,266.13,246.46,250.28,256.89Zm-52.43,31.53a.8.8,0,1,1,.8-.8.8.8,0,0,1-.8.8Zm5.06,0a.8.8,0,0,1,0-1.6.8.8,0,0,1,0,1.6Zm5,0a.8.8,0,1,1,.8-.8.8.8,0,0,1-.8.8Zm88.82-17.95a2.61,2.61,0,1,1,0,3.69h0a2.61,2.61,0,0,1,0-3.68Z"/><path class="cls-2" d="M296.91,337.87a6.87,6.87,0,0,1,.74-.69c.48-.4,1.14-1,1.89-1.56v.14h0l-1.86-1.65a5.52,5.52,0,0,1-.73-.72,5.52,5.52,0,0,1,.82.62c.49.4,1.16,1,1.89,1.61h0l.09.08-.09.06c-.75.61-1.43,1.14-1.92,1.52A5.42,5.42,0,0,1,296.91,337.87Z"/><path class="cls-2" d="M111.21,333.36a6,6,0,0,1-.74.69c-.47.41-1.14,1-1.89,1.56v-.14h0c.74.64,1.4,1.22,1.82,1.65a6.21,6.21,0,0,1,.73.72,6.09,6.09,0,0,1-.82-.62c-.48-.4-1.16-1-1.89-1.6h0l-.09-.08.09-.07c.74-.6,1.42-1.13,1.92-1.52A5.78,5.78,0,0,1,111.21,333.36Z"/><g id="freepik--device-4--inject-130"><rect class="cls-4" x="535.02" y="223.18" width="104.81" height="150.41" rx="10.46"/><rect class="cls-6" x="538.33" y="233.47" width="98.04" height="125.61"/><path class="cls-7" d="M591.45,366a4,4,0,1,1-4-4,4,4,0,0,1,4,4Z"/><rect class="cls-7" x="571.65" y="227.51" width="31.57" height="1.66" rx="0.82"/><rect class="cls-9" x="588.74" y="290.35" width="39.26" height="25.61"/><path class="cls-5" d="M594.44,295.43a1.58,1.58,0,1,1-1.58-1.58h0a1.58,1.58,0,0,1,1.58,1.56Z"/><path class="cls-5" d="M625.87,296.78l-1.29-1.27-1.2,1.23v-3.66h2.5Zm-1.29-1.42h0l1.13,1.11v-3.34h-2.26v3.29Z"/><path class="cls-5" d="M616,294.6c0,.12-4.31.23-9.63.23s-9.63-.11-9.63-.23,4.31-.24,9.63-.24A94.15,94.15,0,0,1,616,294.6Z"/><path class="cls-5" d="M604.15,296.78a29.8,29.8,0,0,1-7.43,0A29.8,29.8,0,0,1,604.15,296.78Z"/><path class="cls-11" d="M547.4,237.48c-2.95.57-6,0-9,.41h-.11v20.53c9.2.9,18.31,3.22,27.46,4.82,12.23,2.14,25.37,2.89,36.55-2.44,9.06-4.3,15.84-12.09,24.19-17.58a51.33,51.33,0,0,1,9.84-5v-4.73H552.66A7,7,0,0,1,547.4,237.48ZM574.24,241a6.34,6.34,0,1,1-6.34,6.34A6.34,6.34,0,0,1,574.24,241Z"/><path class="cls-12" d="M602.34,260.82c-11.21,5.33-24.32,4.58-36.55,2.44-9.14-1.6-18.26-3.92-27.46-4.83V272.8h98V238.2a51.29,51.29,0,0,0-9.84,5C618.18,248.77,611.33,256.52,602.34,260.82ZM584.15,269a.55.55,0,0,1-.54-.55.56.56,0,0,1,.56-.54.55.55,0,0,1,.53.55.54.54,0,0,1-.54.53Zm3.45,0a.55.55,0,0,1-.54-.55.56.56,0,0,1,.56-.54.55.55,0,0,1,.53.55.53.53,0,0,1-.55.53h0Zm3.45,0a.54.54,0,0,1-.54-.54.54.54,0,1,1,1.08,0A.54.54,0,0,1,591.05,269Z"/><path class="cls-9" d="M602.34,260.82c-11.21,5.33-24.32,4.58-36.55,2.44-9.14-1.6-18.26-3.92-27.46-4.83V272.8h98V238.2a51.29,51.29,0,0,0-9.84,5C618.18,248.77,611.33,256.52,602.34,260.82ZM584.15,269a.55.55,0,0,1-.54-.55.56.56,0,0,1,.56-.54.55.55,0,0,1,.53.55.54.54,0,0,1-.54.53Zm3.45,0a.55.55,0,0,1-.54-.55.56.56,0,0,1,.56-.54.55.55,0,0,1,.53.55.53.53,0,0,1-.55.53h0Zm3.45,0a.54.54,0,0,1-.54-.54.54.54,0,1,1,1.08,0A.54.54,0,0,1,591.05,269Z"/><path class="cls-2" d="M584.16,267.87a.56.56,0,0,0-.54.56.55.55,0,0,0,1.09,0,.55.55,0,0,0-.54-.55Z"/><path class="cls-2" d="M587.6,267.87a.56.56,0,0,0-.54.56.55.55,0,1,0,.55-.56Z"/><path class="cls-2" d="M591.05,267.87a.55.55,0,0,0-.54.55.54.54,0,1,0,1.08,0A.55.55,0,0,0,591.05,267.87Z"/><circle class="cls-12" cx="574.24" cy="247.3" r="6.33"/><circle class="cls-9" cx="574.24" cy="247.3" r="6.33"/><path class="cls-12" d="M547.4,237.48a7.07,7.07,0,0,0,5.26-4H538.33v4.43h.11C541.4,237.44,544.45,238.05,547.4,237.48Z"/><path class="cls-2" d="M625.46,280.82c0,.13-17.07.23-38.11.23s-38.11-.1-38.11-.23,17.06-.24,38.11-.24S625.46,280.69,625.46,280.82Z"/><path class="cls-2" d="M606.92,283.45c0,.13-9.14.23-20.41.23s-20.42-.1-20.42-.23,9.14-.24,20.42-.24S606.92,283.32,606.92,283.45Z"/><rect class="cls-11" x="544.05" y="290.35" width="39.26" height="25.61"/><path class="cls-5" d="M549.73,295.43a1.58,1.58,0,1,1-1.57-1.58h0a1.57,1.57,0,0,1,1.57,1.56Z"/><path class="cls-5" d="M581.19,296.78l-1.3-1.27-1.17,1.21,0-3.67h2.5Zm-1.3-1.42h.05l1.13,1.11v-3.34H578.8v3.29Z"/><path class="cls-5" d="M571.29,294.6c0,.12-4.31.23-9.63.23s-9.63-.11-9.63-.23,4.32-.24,9.63-.24A94.15,94.15,0,0,1,571.29,294.6Z"/><path class="cls-5" d="M559.46,296.78a29.8,29.8,0,0,1-7.43,0A29.8,29.8,0,0,1,559.46,296.78Z"/><path class="cls-2" d="M583.31,319.43c0,.12-8.78.23-19.63.23s-19.63-.11-19.63-.23,8.79-.24,19.63-.24S583.31,319.31,583.31,319.43Z"/><path class="cls-2" d="M583.31,321.77c0,.13-8.78.24-19.63.24s-19.63-.11-19.63-.24,8.79-.23,19.63-.23S583.31,321.65,583.31,321.77Z"/><path class="cls-2" d="M564.52,324.11c0,.13-4.59.24-10.24.24s-10.23-.11-10.23-.24,4.59-.23,10.23-.23S564.52,324,564.52,324.11Z"/><rect class="cls-11" x="544.05" y="328.62" width="39.26" height="25.61"/><path class="cls-5" d="M549.73,333.7a1.58,1.58,0,0,1-3.15,0,1.58,1.58,0,0,1,1.58-1.58h0A1.57,1.57,0,0,1,549.73,333.7Z"/><path class="cls-5" d="M581.19,335l-1.3-1.26L578.72,335l0-3.67h2.5Zm-1.3-1.42h.05l1.13,1.11v-3.34H578.8v3.28Z"/><path class="cls-5" d="M571.29,332.86c0,.13-4.31.24-9.63.24S552,333,552,332.86s4.32-.23,9.63-.23S571.29,332.74,571.29,332.86Z"/><path class="cls-5" d="M559.46,335a29.8,29.8,0,0,1-7.43,0A28.87,28.87,0,0,1,559.46,335Z"/><path class="cls-2" d="M583.31,357.7c0,.14-8.78.24-19.63.24s-19.63-.1-19.63-.24,8.79-.23,19.63-.23S583.31,357.58,583.31,357.7Z"/><rect class="cls-9" x="589.79" y="328.62" width="39.26" height="25.61"/><path class="cls-5" d="M595.49,333.7a1.58,1.58,0,1,1-1.58-1.58h0A1.58,1.58,0,0,1,595.49,333.7Z"/><path class="cls-5" d="M626.93,335l-1.29-1.26L624.43,335v-3.67h2.49Zm-1.29-1.42h0l1.14,1.11v-3.34h-2.27v3.28Z"/><path class="cls-5" d="M617,332.86c0,.13-4.31.24-9.63.24a88.51,88.51,0,0,1-9.66-.24,92.34,92.34,0,0,1,9.62-.23C612.7,332.63,617,332.74,617,332.86Z"/><path class="cls-5" d="M605.2,335a29.72,29.72,0,0,1-7.42,0A28.8,28.8,0,0,1,605.2,335Z"/><path class="cls-2" d="M629.06,357.7c0,.14-8.79.24-19.63.24s-19.64-.1-19.64-.24,8.8-.23,19.64-.23S629.06,357.58,629.06,357.7Z"/><path class="cls-2" d="M628.55,319.43c0,.12-8.79.23-19.63.23s-19.64-.11-19.64-.23,8.79-.24,19.64-.24S628.55,319.31,628.55,319.43Z"/><path class="cls-2" d="M628.55,321.77c0,.13-8.79.24-19.63.24s-19.64-.11-19.64-.24,8.79-.23,19.64-.23S628.55,321.65,628.55,321.77Z"/><path class="cls-2" d="M609.74,324.11c0,.13-4.58.24-10.23.24s-10.23-.11-10.23-.24,4.58-.23,10.23-.23S609.74,324,609.74,324.11Z"/><path class="cls-9" d="M547.4,237.48a7.07,7.07,0,0,0,5.26-4H538.33v4.43h.11C541.4,237.44,544.45,238.05,547.4,237.48Z"/></g><g id="freepik--Character--inject-130"><path class="cls-11" d="M258.25,139.11l-.33,11.31.33-11.31,87.14,2.72c.63,4.62-4.17,8.34-8.78,9.06s-9.34-.34-14,.24c-9.26,1.14-16.38,8.55-25,12.17-14.11,6-32,.37-39.74-12.83l-1.69,58.74.09-2.94c10-16.56,31.37-24.09,50.73-24.12s38.14,5.86,57.07,9.74,39.36,5.66,57.07-2.15c14.25-6.29,25.25-18.12,38.51-26.28,26.92-16.62,63.36-16.3,90,.75l-1.54,53.45-291.92-8.45,292.25,8.62,2-70.1Zm119.48,38.15a9.87,9.87,0,1,1,10.15-9.58h0a9.86,9.86,0,0,1-10.13,9.58Z"/><path class="cls-12" d="M549.74,164.16c-26.63-17.06-63.08-17.36-90-.74-13.26,8.15-24.26,20-38.51,26.27-17.7,7.82-38.11,6-57.07,2.16s-37.75-9.77-57.07-9.74-40.71,7.55-50.73,24.11l-.09,2.95L548.2,217.6ZM394.58,204.93a1.15,1.15,0,1,1,1.19-1.12,1.14,1.14,0,0,1-1.19,1.12h-.09Zm7.25.22a1.16,1.16,0,0,1,.05-2.31A1.15,1.15,0,0,1,403,204a1.14,1.14,0,0,1-1.16,1.14h0Zm7.24.2a1.15,1.15,0,1,1,1.18-1.12h0a1.15,1.15,0,0,1-1.15,1.13Zm111.86-18.86A3.21,3.21,0,1,1,521,182h0a3.22,3.22,0,0,1-.1,4.55h0Z"/><path class="cls-9" d="M549.74,164.16c-26.63-17.06-63.08-17.36-90-.74-13.26,8.15-24.26,20-38.51,26.27-17.7,7.82-38.11,6-57.07,2.16s-37.75-9.77-57.07-9.74-40.71,7.55-50.73,24.11l-.09,2.95L548.2,217.6ZM394.58,204.93a1.15,1.15,0,1,1,1.19-1.12,1.14,1.14,0,0,1-1.19,1.12h-.09Zm7.25.22a1.16,1.16,0,0,1,.05-2.31A1.15,1.15,0,0,1,403,204a1.14,1.14,0,0,1-1.16,1.14h0Zm7.24.2a1.15,1.15,0,1,1,1.18-1.12h0a1.15,1.15,0,0,1-1.15,1.13Zm111.86-18.86A3.21,3.21,0,1,1,521,182h0a3.22,3.22,0,0,1-.1,4.55h0Z"/><path class="cls-2" d="M394.61,202.65a1.15,1.15,0,1,0,1.11,1.19h0A1.15,1.15,0,0,0,394.61,202.65Z"/><path class="cls-2" d="M401.88,202.86a1.15,1.15,0,1,0,1.11,1.19h0a1.14,1.14,0,0,0-1.1-1.18Z"/><path class="cls-2" d="M409.16,203.07a1.15,1.15,0,1,0,1.12,1.19,1.15,1.15,0,0,0-1.12-1.19Z"/><path class="cls-12" d="M297.66,163.29c8.59-3.62,15.71-11,25-12.17,4.64-.58,9.38.51,14-.24s9.41-4.46,8.78-9.06l-87.14-2.71-.33,11.3v.05h0C265.7,163.66,283.55,169.25,297.66,163.29Z"/><path class="cls-9" d="M297.66,163.29c8.59-3.62,15.71-11,25-12.17,4.64-.58,9.38.51,14-.24s9.41-4.46,8.78-9.06l-87.14-2.71-.33,11.3v.05h0C265.7,163.66,283.55,169.25,297.66,163.29Z"/><path class="cls-12" d="M378.3,157.52a9.87,9.87,0,1,0,9.58,10.16h0A9.88,9.88,0,0,0,378.3,157.52Z"/><path class="cls-9" d="M378.3,157.52a9.87,9.87,0,1,0,9.58,10.16h0A9.88,9.88,0,0,0,378.3,157.52Z"/><path class="cls-2" d="M505.7,218c2.41-4.06,3.11-9.47,3.74-14.14.29-2.2.8-5.34-.75-6.72s-1.81-3.76-3.7-4.9a5.85,5.85,0,0,0-6.34.05"/><path class="cls-13" d="M499,232.34h0a6.51,6.51,0,0,1-7-6c0-.08,0-.17,0-.25-.14-3.55-.26-7.14-.26-7.14s-5.37-.5-5.76-5.83-.21-17.6-.21-17.6h0a18.55,18.55,0,0,1,18.74,1.21l-.34,18.72v10.08C504.12,228.92,502.36,232.09,499,232.34Z"/><path class="cls-2" d="M491.26,206.64a2.73,2.73,0,0,1,3.63-.79,3.08,3.08,0,0,1,1,3.86,4,4,0,0,1-2.61,2,2,2,0,0,0-1.6,2.2c.15,1.34,2.38,1.81,3.38,2.94,1.56,1.72,5,2.45,7.29,2.72s2,.29,3.31-1.57a7.16,7.16,0,0,0,1.29-4.32l.25-11.78a17.07,17.07,0,0,0-.28-4.22,5.66,5.66,0,0,0-2.22-3.49c-1.29-.86-2.93-.91-4.41-1.41a35.16,35.16,0,0,1-5.13-2.72c-1.73-.9-3.83-1.4-5.57-.53-1.24.62-2.07,1.86-3.28,2.54-1.72,1-4.06.77-4.9,3.29a4.36,4.36,0,0,0,0,2.72c1.17,3.44,5.44,4.83,8.5,3.34.07.58-.51,1.88.1,3.72.2.59.27,1.48,1.19,1.5"/><path class="cls-14" d="M492.22,210a.94.94,0,0,0,.67.23,1.22,1.22,0,0,0,.9-1.19,1.29,1.29,0,0,0-.9-1.29c-.43-.17-.75-.1-.76-.17s.28-.27.85-.16a1.6,1.6,0,0,1,.85.49,1.6,1.6,0,0,1-1,2.66.84.84,0,0,1-.6-.32C492.19,210.07,492.19,210,492.22,210Z"/><path class="cls-2" d="M507.56,203.16a6.58,6.58,0,0,1,4.53-3.48,5.61,5.61,0,0,1,5.32,1.94,4.83,4.83,0,0,1,.23,5.55c-1.28,1.88-3.75,2.46-6,2.72a9.18,9.18,0,0,0,6.56,3.15,6,6,0,0,1-6.08.29l3.62,3.13a8.15,8.15,0,0,1-6.7-14.58"/><path class="cls-12" d="M510.92,209.67a2.06,2.06,0,0,1-1.9,0,4.61,4.61,0,0,1-2.66-3.62,4.88,4.88,0,0,1,1.46-4.3,3,3,0,0,1,1.65-1,12.31,12.31,0,0,0-1.4,1.1,4.87,4.87,0,0,0-1.25,4,4.54,4.54,0,0,0,2.34,3.43A4,4,0,0,0,510.92,209.67Z"/><path class="cls-7" d="M518.63,204.34a5.18,5.18,0,0,0-1.5-1,8.07,8.07,0,0,0-4.33-.14,11.06,11.06,0,0,0-4,1.72,18.34,18.34,0,0,1-1.5,1.09,4.12,4.12,0,0,1,1.3-1.36,9.8,9.8,0,0,1,4.15-1.91,7.63,7.63,0,0,1,4.53.29C518.37,203.55,518.68,204.34,518.63,204.34Z"/><path class="cls-7" d="M517,207.9a2.57,2.57,0,0,1-1.3.36,6.12,6.12,0,0,1-5.66-2.64c-.46-.7-.6-1.21-.54-1.23a12.18,12.18,0,0,1,.8,1,7.3,7.3,0,0,0,2.41,1.86,7.14,7.14,0,0,0,3,.65A7.15,7.15,0,0,1,517,207.9Z"/><path class="cls-7" d="M508.91,215a3.21,3.21,0,0,1-1.38-.91,6.93,6.93,0,0,1-1.91-7.38,3.32,3.32,0,0,1,.79-1.45c.06,0-.23.59-.47,1.54a7.47,7.47,0,0,0,1.81,7.06C508.43,214.63,509,215,508.91,215Z"/><path class="cls-7" d="M497.75,193.92a2.77,2.77,0,0,1,2.07-1.1,4.6,4.6,0,0,1,2.56.38,5.79,5.79,0,0,1,2.36,2.11,11.72,11.72,0,0,1,1.65,5.43,11.34,11.34,0,0,1,.11,2.33,10.53,10.53,0,0,1-.44-2.29,12.85,12.85,0,0,0-1.71-5.18,5.64,5.64,0,0,0-2.16-2,4.5,4.5,0,0,0-2.34-.44A4.77,4.77,0,0,0,497.75,193.92Z"/><path class="cls-7" d="M482.78,199.37a1.08,1.08,0,0,1-.75-.25,1.86,1.86,0,0,1-.8-1.94,2.08,2.08,0,0,1,.9-1.27,3,3,0,0,1,1.71-.33,2.28,2.28,0,0,0,1.58-.41,12.22,12.22,0,0,0,1.3-1.39,6.54,6.54,0,0,1,3.33-1.92,7.08,7.08,0,0,1,3.14-.07,6,6,0,0,1,2,.77c.42.27.62.46.6.48a9.74,9.74,0,0,0-2.63-.9,6.72,6.72,0,0,0-3,.15,6.47,6.47,0,0,0-3.1,1.81,9,9,0,0,1-1.37,1.45,2.13,2.13,0,0,1-.9.42,4.63,4.63,0,0,1-.91.05,2.51,2.51,0,0,0-1.48.24,1.65,1.65,0,0,0-.58,2.26,1.75,1.75,0,0,0,.4.46Z"/><path class="cls-7" d="M497,214.17a5.52,5.52,0,0,1,.7-.44,4.47,4.47,0,0,0,1.43-1.62,4.05,4.05,0,0,0-.73-4.67,7.41,7.41,0,0,0-1.66-1.22c-.61-.36-1.25-.69-1.81-1.08a6.2,6.2,0,0,1-1.48-1.41,6.36,6.36,0,0,1-1.24-3.16,5.49,5.49,0,0,1,.19-2.28,1.82,1.82,0,0,1,.33-.77,8.2,8.2,0,0,0-.19,3,6.37,6.37,0,0,0,1.25,2.95,9.94,9.94,0,0,0,3.21,2.35,8.16,8.16,0,0,1,1.75,1.29,4.47,4.47,0,0,1,.68,5.2,4.07,4.07,0,0,1-1.63,1.61A1.75,1.75,0,0,1,497,214.17Z"/><path class="cls-7" d="M506.26,206.36a4.35,4.35,0,0,1-.68.17,10.28,10.28,0,0,1-1.92.07,11.85,11.85,0,0,1-6-2,9.44,9.44,0,0,1-3.91-4.93,4,4,0,0,1-.06-1.94,1.4,1.4,0,0,1,.28-.65,4.93,4.93,0,0,0,.11,2.5,9.72,9.72,0,0,0,3.84,4.63,12.63,12.63,0,0,0,5.71,2.09C505.23,206.45,506.26,206.27,506.26,206.36Z"/><polygon class="cls-11" points="487.8 386.93 485.14 392.54 497.02 392.39 497.54 386.46 487.8 386.93"/><path class="cls-2" d="M497.24,391.27a8.36,8.36,0,0,1-1.73.14h-4.16l-4.17-.14a8.36,8.36,0,0,1-1.73-.14,7.17,7.17,0,0,1,1.73-.13h4.18l4.15.12A8.37,8.37,0,0,1,497.24,391.27Z"/><path class="cls-2" d="M492.15,386.23a8.07,8.07,0,0,1,.06,2.5,8.74,8.74,0,0,1-.33,2.49,8.45,8.45,0,0,1-.05-2.51A9.08,9.08,0,0,1,492.15,386.23Z"/><path class="cls-13" d="M539.39,389.23,520.93,283h0a2.09,2.09,0,0,0-.12-.46h0c-3.15-12.48-5.63-15.54-5.63-15.54l-30.66.81c-2.4,4.32-2.72,14.7-2.72,14.7-.33,1.28,6,104.4,6,104.4l9.46-.26,5.14-97.57,27.43,100.34Z"/><path class="cls-13" d="M436.5,214.42c-.07-1.94.75-5.64,1.21-5.93s1,.26.78.81a6.69,6.69,0,0,0-.29,1.93,4.49,4.49,0,0,0,.18,1.55c.13.44.25.82.37,1.16l.21.63,20.28,18.11,12.68-.77,2.52,12.93L453.82,243l-21.2-23.29h0c-1.81-1.29-3.63-2.87-4.79-3.62-2.08-1.36-1.48-1.73-1.23-2Z"/><path class="cls-13" d="M550.39,203.62l-12.63,25.79-12.68,5.39-4.73-11.38,9.29-2.46,14.45-23.06V196a4.61,4.61,0,0,0-.27-1.56,7,7,0,0,0-.8-1.81c-.37-.47,0-1.15.52-1s1.56,1.42,2,3.29,1.72-.86,2.2-1.81,2.07-4,2.49-4.05c.6-.13.9.51.37,1.49s-1.81,4-1.26,4.25l.91-.06.7,3.5A8.32,8.32,0,0,1,550.39,203.62Z"/><path class="cls-11" d="M542.1,390.24l0-1.21-12.27.36.11,4h.76c3.37.08,17.16.2,19.39-.49C552.54,392.13,542.1,390.24,542.1,390.24Z"/><path class="cls-2" d="M529.72,393.12h3c1.88,0,4.47,0,7.33-.07s5.44-.2,7.32-.3l2.22-.15.6-.05h-.61l-2.21.1c-1.87.08-4.46.19-7.32.26s-5.43.1-7.33.11h-3Z"/><path class="cls-2" d="M546.17,393a4.51,4.51,0,0,1,.39-1,5,5,0,0,1,.72-.81,1.72,1.72,0,0,0-.86.74A1.45,1.45,0,0,0,546.17,393Z"/><path class="cls-2" d="M542.49,391.4a2.25,2.25,0,0,0,.37-.46c.18-.27.28-.49.25-.51s-.2.18-.37.45A2,2,0,0,0,542.49,391.4Z"/><path class="cls-2" d="M541.51,391a2,2,0,0,0,.43-.28c.21-.18.34-.35.32-.38s-.22.1-.42.28A1.46,1.46,0,0,0,541.51,391Z"/><path class="cls-2" d="M540.86,389.87c0,.05.28.08.64.07a1.68,1.68,0,0,0,.63-.08,3,3,0,0,0-1.27,0Z"/><path class="cls-2" d="M540.62,389.14a1.39,1.39,0,0,0,.72.17,1.23,1.23,0,0,0,.73-.11,4.45,4.45,0,0,0-.73,0A4.37,4.37,0,0,0,540.62,389.14Z"/><path class="cls-2" d="M542.9,390.39a2.1,2.1,0,0,0,.79,0,3.76,3.76,0,0,0,.82-.19,2,2,0,0,0,.48-.2.35.35,0,0,0,.18-.23.27.27,0,0,0-.12-.29,1.5,1.5,0,0,0-1.81.44,1.22,1.22,0,0,0-.24.5v.2a2,2,0,0,1,.34-.64,1.32,1.32,0,0,1,.66-.42,1.27,1.27,0,0,1,.9,0c.13.08.08.21,0,.3a3.43,3.43,0,0,1-.44.19,5.41,5.41,0,0,1-.79.21C543.2,390.36,542.9,390.37,542.9,390.39Z"/><path class="cls-2" d="M543.11,390.43a.78.78,0,0,0,.07-.52,1.11,1.11,0,0,0-.23-.52.84.84,0,0,0-.67-.36.29.29,0,0,0-.23.33v0a.77.77,0,0,0,.14.32,2.6,2.6,0,0,0,.38.43,1.08,1.08,0,0,0,.47.28,4.38,4.38,0,0,1-.39-.35,2.79,2.79,0,0,1-.34-.43c-.12-.15-.2-.43,0-.46s.4.15.53.3a1.11,1.11,0,0,1,.23.46A4.07,4.07,0,0,1,543.11,390.43Z"/><path class="cls-2" d="M529.87,390.05h.91a4.18,4.18,0,0,1,2,.7,3.79,3.79,0,0,1,1.28,1.58,6.27,6.27,0,0,1,.25.81.45.45,0,0,0,0-.23,2.57,2.57,0,0,0-.14-.61,3.61,3.61,0,0,0-1.3-1.66,3.9,3.9,0,0,0-2.06-.69,2.5,2.5,0,0,0-.67,0Z"/><path class="cls-2" d="M535.83,392a10.64,10.64,0,0,0,3.56-.06,18,18,0,0,0-1.81,0A11.27,11.27,0,0,0,535.83,392Z"/><path class="cls-2" d="M533.43,392.08l.16.32c.08.17.13.32.18.31s.05-.17,0-.37S533.43,392.05,533.43,392.08Z"/><path class="cls-2" d="M532.53,391.06a.59.59,0,0,0,.18.25c.13.11.26.2.29.17s-.06-.15-.18-.26S532.53,391,532.53,391.06Z"/><path class="cls-2" d="M531.2,390.62a1,1,0,0,1,.35.08c.18.08.32.14.34.12s-.07-.18-.3-.25S531.19,390.58,531.2,390.62Z"/><path class="cls-2" d="M530.27,390.42a.33.33,0,0,0,.17.12.3.3,0,0,0,.2,0s0-.09-.16-.12S530.29,390.38,530.27,390.42Z"/><path class="cls-11" d="M512.45,244.49l.37-1.36c.91-.59,12-7.5,12.44-7.57s-4.93-12.68-4.93-12.68l-12.61,1.81a20.48,20.48,0,0,0-3.56-.43l-12-.1s-5.36.63-7.06,1.87l-13.41,5.07,3,15.6,11.68-2.06c-.57,1.6,0,4.37.48,7.52.6,3.89.9,9.31-1.05,12.68,0,0-2.47,8.53-2.47,15.3l34.29-4s-.1-7.37-6.89-16.11l.32-9.21Z"/><path class="cls-5" d="M487.55,240.57a19.72,19.72,0,0,1-.52-3l.27.11-3.24,2.4-.32.25V240c-.09-1-.18-2.09-.27-3.23l.38.18-.16.1-3.57,2.38-.24.16-.08-.27a12.25,12.25,0,0,1-.57-3.05l.25.14a5,5,0,0,0-1.75,1.31,8.22,8.22,0,0,1-.52.65,1.9,1.9,0,0,1,.38-.75,4.56,4.56,0,0,1,1.74-1.52l.22-.11v.26a12.28,12.28,0,0,0,.64,2.93l-.33-.11,3.55-2.41.15-.09.34-.23v.4c.08,1.13.16,2.22.24,3.23l-.36-.17,3.31-2.3.23-.17v.28A18.86,18.86,0,0,1,487.55,240.57Z"/><path class="cls-5" d="M504.75,234.69a19.36,19.36,0,0,1-2-2.22l.28-.05-1.43,3.78-.13.37-.25-.32-2-2.57.4,0-.07.16c-.61,1.39-1.18,2.72-1.72,3.93l-.11.26-.22-.18a11.3,11.3,0,0,1-2.12-2.25h.28a4.76,4.76,0,0,0-.75,2.05,8.1,8.1,0,0,1-.1.83,2,2,0,0,1-.1-.85,4.67,4.67,0,0,1,.66-2.21l.12-.2.16.19a12.51,12.51,0,0,0,2.12,2.12l-.33.1c.52-1.23,1.08-2.56,1.68-4l.07-.18.15-.37.25.33,1.95,2.58-.39.05,1.53-3.73.11-.26.17.22A19.22,19.22,0,0,1,504.75,234.69Z"/><path class="cls-5" d="M490.09,244.32a19.64,19.64,0,0,1-.91,2.88L489,247l4-.7.4-.07-.16.37c-.38.91-.79,1.95-1.2,3l-.26-.32h.18l4.26-.52h.28V249a11.93,11.93,0,0,1-.9,3l-.16-.23a5,5,0,0,0,2.16-.4,6.36,6.36,0,0,1,.75-.34,1.82,1.82,0,0,1-.68.51,4.69,4.69,0,0,1-2.24.57h-.23l.09-.24A13.33,13.33,0,0,0,496,249l.24.25-4.25.57h-.18l-.41,0,.15-.37,1.24-3,.24.3-4,.59-.28.05.1-.27A20.57,20.57,0,0,1,490.09,244.32Z"/><path class="cls-5" d="M510.38,227a18.17,18.17,0,0,1-.91,2.88l-.18-.22,4-.69.39-.08-.15.38-1.21,3-.24-.31h.18l4.25-.53h.29v.28a11.55,11.55,0,0,1-.91,3l-.15-.23a5,5,0,0,0,2.15-.39,7.27,7.27,0,0,1,.75-.35,2.4,2.4,0,0,1-.67.51,4.56,4.56,0,0,1-2.23.56h-.25l.09-.23a12.29,12.29,0,0,0,.75-2.92l.25.24-4.26.57h-.18l-.4.06.15-.37c.44-1,.86-2.06,1.24-3l.24.3-4,.59h-.29l.1-.26A18.89,18.89,0,0,1,510.38,227Z"/><path class="cls-5" d="M485.52,227.48a19.36,19.36,0,0,1,1.22,2.71l-.29,0L489,227l.25-.31.13.39,1,3.06-.4-.08.13-.13,2.9-3.16.19-.21.14.23a11.42,11.42,0,0,1,1.28,2.88l-.26-.07a5.05,5.05,0,0,0,1.38-1.7,3.86,3.86,0,0,1,.35-.74,2.09,2.09,0,0,1-.19.81,4.65,4.65,0,0,1-1.33,1.88l-.18.17-.09-.24a12.66,12.66,0,0,0-1.32-2.72h.35l-2.88,3.19-.11.14-.28.3-.12-.39-1-3.07.38.07-2.65,3-.18.22-.1-.26A20.35,20.35,0,0,1,485.52,227.48Z"/><path class="cls-5" d="M503.72,242.64a17.65,17.65,0,0,1,2.39,1.81l-.26.09c.22-1.16.46-2.49.74-4l.07-.4.29.29c.76.68,1.55,1.42,2.39,2.18l-.39.12v-.18c.35-1.47.7-2.88,1-4.17l.08-.27.24.13a11.62,11.62,0,0,1,2.48,1.87l-.27,0a4.93,4.93,0,0,0,.39-2.14,5.78,5.78,0,0,1,0-.83,1.76,1.76,0,0,1,.23.81,4.59,4.59,0,0,1-.26,2.29l-.08.23-.18-.17a12.89,12.89,0,0,0-2.47-1.73l.32-.14c-.3,1.29-.64,2.72-1,4.18v.18l-.09.39L509,243l-2.36-2.2.37-.12c-.32,1.46-.61,2.79-.91,3.94l-.05.28-.21-.19A21.83,21.83,0,0,1,503.72,242.64Z"/><path class="cls-5" d="M505.5,250.25a19.93,19.93,0,0,1-2.59,1.55v-.28l3.41,2.14.34.21-.37.18-2.9,1.41v-.41l.14.11,3.51,2.47.23.17-.22.18a12.45,12.45,0,0,1-2.6,1.62v-.27a4.85,4.85,0,0,0,1.86,1.15,7.24,7.24,0,0,1,.79.25,1.84,1.84,0,0,1-.84-.08,4.8,4.8,0,0,1-2-1.08l-.18-.16.22-.12a11.71,11.71,0,0,0,2.51-1.65V258l-3.53-2.44-.14-.11-.34-.24.36-.17,2.93-1.38V254l-3.34-2.25-.24-.15.25-.13A19.88,19.88,0,0,1,505.5,250.25Z"/><path class="cls-5" d="M486.93,263.4a19.14,19.14,0,0,1,2.84,1l-.23.17c-.15-1.17-.33-2.52-.52-4l-.06-.4.37.16,2.94,1.34-.33.24v-.18c-.11-1.52-.23-3-.33-4.28v-.28l.28.05a11.66,11.66,0,0,1,2.93,1l-.23.14a5,5,0,0,0-.31-2.17c-.11-.25-.22-.51-.31-.77a1.69,1.69,0,0,1,.48.7,4.76,4.76,0,0,1,.47,2.26v.24l-.23-.1a13.13,13.13,0,0,0-2.87-.91l.25-.22.38,4.27v.58l-.36-.16-2.94-1.37.32-.22c.15,1.48.29,2.83.41,4v.29l-.26-.12A18.88,18.88,0,0,1,486.93,263.4Z"/><path class="cls-7" d="M485.88,226.23a2.18,2.18,0,0,1,.95,0,5.51,5.51,0,0,1,2.45.9,7.12,7.12,0,0,1,2.55,2.89,10.22,10.22,0,0,1,1,4.62,12,12,0,0,1-3.12,7.81,11.28,11.28,0,0,1-2,1.69,3.34,3.34,0,0,1-.84.43,19.42,19.42,0,0,0,2.55-2.33,12.25,12.25,0,0,0,2.9-7.61,10.07,10.07,0,0,0-.9-4.42,6.81,6.81,0,0,0-2.34-2.79A6.66,6.66,0,0,0,485.88,226.23Z"/><path class="cls-9" d="M484,268.29c-8.93,28.18,1.46,63.25-1.26,96.08-.25,3-1.41,6.59.91,8.54a5.6,5.6,0,0,0,5,.8,37,37,0,0,0,4.86-1.94,19.55,19.55,0,0,1,12.94-.49c2.86.9,5.68,2.45,8.63,2,3.92-.6,6.46-4.47,10.06-6.11,3.38-1.54,7.25-1,11-1.06s7.95-1.32,9.37-4.75c0,0-25.62-95.68-34.6-101.38L487,261.5Z"/><path class="cls-2" d="M510.51,285.8c0,.1-3.38,1.07-7.62,2.16s-7.69,1.91-7.72,1.81c2.5-.85,5.05-1.57,7.63-2.17C507,286.5,510.49,285.7,510.51,285.8Z"/></g></svg>