<svg id="visual" viewBox="0 0 900 600" width="900" height="600" xmlns="http://www.w3.org/2000/svg" xmlns:xlink="http://www.w3.org/1999/xlink" version="1.1"><rect width="900" height="600" fill="#B0BEC5"></rect><g><g transform="translate(136 372)"><path d="M86.8 -50.2C104.1 -20.1 104.1 20 86.7 50C69.3 79.9 34.7 99.9 -0.9 100.4C-36.4 100.9 -72.7 81.9 -91 51.4C-109.2 21 -109.2 -21.1 -91.1 -51.6C-72.9 -82.2 -36.4 -101.2 -0.8 -100.7C34.7 -100.3 69.5 -80.2 86.8 -50.2Z" fill="none" stroke="#F7760E" stroke-width="20"></path></g><g transform="translate(699 406)"><path d="M93.3 -53.7C110.7 -23.7 107.6 18.3 88.6 49.3C69.6 80.3 34.8 100.4 0.1 100.3C-34.7 100.3 -69.4 80.2 -88.6 49C-107.9 17.8 -111.9 -24.5 -94.5 -54.5C-77.2 -84.4 -38.6 -101.9 -0.3 -101.7C37.9 -101.6 75.9 -83.6 93.3 -53.7Z" stroke="#F7760E" fill="none" stroke-width="20"></path></g><g transform="translate(494 162)"><path d="M95.9 -53.2C115.1 -22.1 115.1 22.2 96 53.3C76.8 84.3 38.4 102.2 1.8 101.1C-34.7 100.1 -69.5 80.1 -87.5 49.7C-105.5 19.3 -106.7 -21.5 -89.4 -51.6C-72 -81.6 -36 -100.9 1.2 -101.5C38.4 -102.2 76.7 -84.3 95.9 -53.2Z" stroke="#F7760E" fill="none" stroke-width="20"></path></g></g></svg>